<svg width="17" height="17" viewBox="0 0 17 17" fill="none" xmlns="http://www.w3.org/2000/svg">
<path d="M9.41576 8.00409L15.7158 1.71409C15.9041 1.52579 16.0099 1.27039 16.0099 1.00409C16.0099 0.737789 15.9041 0.482399 15.7158 0.294089C15.5275 0.105789 15.2721 0 15.0058 0C14.7395 0 14.4841 0.105789 14.2958 0.294089L8.0058 6.59409L1.7158 0.294089C1.5275 0.105789 1.2721 0 1.0058 0C0.739499 0 0.484099 0.105789 0.295799 0.294089C0.107499 0.482399 0.001706 0.737789 0.001706 1.00409C0.001706 1.27039 0.107499 1.52579 0.295799 1.71409L6.5958 8.00409L0.295799 14.2941C0.202069 14.3871 0.127679 14.4977 0.0769091 14.6195C0.0261391 14.7414 0 14.8721 0 15.0041C0 15.1361 0.0261391 15.2668 0.0769091 15.3887C0.127679 15.5105 0.202069 15.6211 0.295799 15.7141C0.388759 15.8078 0.499359 15.8822 0.621219 15.933C0.743079 15.9838 0.873789 16.0099 1.0058 16.0099C1.13781 16.0099 1.26852 15.9838 1.39038 15.933C1.51224 15.8822 1.62284 15.8078 1.7158 15.7141L8.0058 9.41409L14.2958 15.7141C14.3888 15.8078 14.4994 15.8822 14.6213 15.933C14.7431 15.9838 14.8738 16.0099 15.0058 16.0099C15.1379 16.0099 15.2686 15.9838 15.3904 15.933C15.5123 15.8822 15.6229 15.8078 15.7158 15.7141C15.8096 15.6211 15.884 15.5105 15.9347 15.3887C15.9855 15.2668 16.0116 15.1361 16.0116 15.0041C16.0116 14.8721 15.9855 14.7414 15.9347 14.6195C15.884 14.4977 15.8096 14.3871 15.7158 14.2941L9.41576 8.00409Z" fill="#263640"/>
</svg>
